HIERARCHY
ROOT newVegas:Hips
{
	OFFSET 0.000000 96.479958 0.000000
	CHANNELS 6 Xposition Yposition Zposition Xrotation Yrotation Zrotation
	JOINT newVegas:Pelvis
	{
		OFFSET 0.000000 0.000000 0.000000
		CHANNELS 3 Xrotation Yrotation Zrotation
		JOINT newVegas:LeftUpLeg
		{
			OFFSET 18.735201 -5.666702 -4.541200
			CHANNELS 3 Xrotation Yrotation Zrotation
			JOINT newVegas:LeftLeg
			{
				OFFSET -0.021200 -31.938179 0.493100
				CHANNELS 3 Xrotation Yrotation Zrotation
				JOINT newVegas:LeftFoot
				{
					OFFSET 0.021200 -31.938179 -4.336299
					CHANNELS 3 Xrotation Yrotation Zrotation
					JOINT newVegas:LeftToeBase
					{
						OFFSET 0.943001 -26.722000 15.023500
						CHANNELS 3 Xrotation Yrotation Zrotation
						End Site
						{
							OFFSET 0.000000 30.670183 0.000000
						}
					}
				}
				JOINT newVegas:Left_PantLeg
				{
					OFFSET 0.663870 -9.044666 -1.108900
					CHANNELS 3 Xrotation Yrotation Zrotation
					End Site
					{
						OFFSET 1.415995 20.635357 0.000000
					}
				}
			}
		}
		JOINT newVegas:RightUpLeg
		{
			OFFSET -18.735201 -5.666702 -4.541200
			CHANNELS 3 Xrotation Yrotation Zrotation
			JOINT newVegas:RightLeg
			{
				OFFSET 0.018946 -31.938133 0.493100
				CHANNELS 3 Xrotation Yrotation Zrotation
				JOINT newVegas:RightFoot
				{
					OFFSET -0.018946 -31.938126 -4.336299
					CHANNELS 3 Xrotation Yrotation Zrotation
					JOINT newVegas:RightToeBase
					{
						OFFSET -0.943001 -26.722004 15.023500
						CHANNELS 3 Xrotation Yrotation Zrotation
						End Site
						{
							OFFSET 0.000000 30.670187 0.000000
						}
					}
				}
				JOINT newVegas:Right_PantLeg
				{
					OFFSET -0.661674 -9.044716 -1.108900
					CHANNELS 3 Xrotation Yrotation Zrotation
					End Site
					{
						OFFSET -1.415958 20.635269 0.000000
					}
				}
			}
		}
	}
	JOINT newVegas:Spine
	{
		OFFSET 0.000000 10.199997 -0.299500
		CHANNELS 3 Xrotation Yrotation Zrotation
		JOINT newVegas:Spine1
		{
			OFFSET 0.000000 11.900002 -1.516600
			CHANNELS 3 Xrotation Yrotation Zrotation
			JOINT newVegas:Spine2
			{
				OFFSET 0.000000 13.600006 -2.842500
				CHANNELS 3 Xrotation Yrotation Zrotation
				JOINT newVegas:Neck
				{
					OFFSET 0.000000 9.624100 -2.890100
					CHANNELS 3 Xrotation Yrotation Zrotation
					JOINT newVegas:Head
					{
						OFFSET 0.000000 14.068802 -1.351900
						CHANNELS 3 Xrotation Yrotation Zrotation
						JOINT newVegas:Hair_Back
						{
							OFFSET 0.000000 3.231903 -17.524799
							CHANNELS 3 Xrotation Yrotation Zrotation
							End Site
							{
								OFFSET 0.000000 19.849884 0.000000
							}
						}
						JOINT newVegas:Hair_Front
						{
							OFFSET 0.000000 31.260406 4.573800
							CHANNELS 3 Xrotation Yrotation Zrotation
							JOINT newVegas:Hair_Front1
							{
								OFFSET 0.000000 2.284103 11.993300
								CHANNELS 3 Xrotation Yrotation Zrotation
								JOINT newVegas:Hair_Front2
								{
									OFFSET 0.000000 2.284103 11.993300
									CHANNELS 3 Xrotation Yrotation Zrotation
									End Site
									{
										OFFSET 0.000000 12.208862 0.000000
									}
								}
							}
						}
						JOINT newVegas:Jowel
						{
							OFFSET 0.000000 -7.458206 6.864100
							CHANNELS 3 Xrotation Yrotation Zrotation
							End Site
							{
								OFFSET 0.000000 19.849884 0.000000
							}
						}
					}
				}
				JOINT newVegas:LeftShoulder
				{
					OFFSET 15.263000 10.923401 -0.547700
					CHANNELS 3 Xrotation Yrotation Zrotation
					JOINT newVegas:LeftArm
					{
						OFFSET 25.438599 -2.830597 -13.032500
						CHANNELS 3 Xrotation Yrotation Zrotation
						JOINT newVegas:LeftForeArm
						{
							OFFSET 29.960503 0.000000 0.000000
							CHANNELS 3 Xrotation Yrotation Zrotation
							JOINT newVegas:LeftHand
							{
								OFFSET 27.849251 0.000000 0.000000
								CHANNELS 3 Xrotation Yrotation Zrotation
								JOINT newVegas:LeftHandThumb1
								{
									OFFSET 4.487587 -3.305161 6.305391
									CHANNELS 3 Xrotation Yrotation Zrotation
									JOINT newVegas:LeftHandThumb2
									{
										OFFSET 5.480453 -3.164139 3.164143
										CHANNELS 3 Xrotation Yrotation Zrotation
										JOINT newVegas:LeftHandThumb3
										{
											OFFSET 5.159721 -2.978973 2.978967
											CHANNELS 3 Xrotation Yrotation Zrotation
											End Site
											{
												OFFSET 2.494507 5.926697 1.738678
											}
										}
									}
								}
								JOINT newVegas:LeftHandIndex1
								{
									OFFSET 18.578728 -0.527832 5.208049
									CHANNELS 3 Xrotation Yrotation Zrotation
									JOINT newVegas:LeftHandIndex2
									{
										OFFSET 3.192009 0.000000 0.000000
										CHANNELS 3 Xrotation Yrotation Zrotation
										JOINT newVegas:LeftHandIndex3
										{
											OFFSET 3.835129 0.000000 0.000000
											CHANNELS 3 Xrotation Yrotation Zrotation
											End Site
											{
												OFFSET -0.034599 3.816971 0.371180
											}
										}
									}
								}
								JOINT newVegas:LeftHandMiddle1
								{
									OFFSET 18.476105 0.000000 0.000000
									CHANNELS 3 Xrotation Yrotation Zrotation
									JOINT newVegas:LeftHandMiddle2
									{
										OFFSET 3.324875 0.000000 0.000000
										CHANNELS 3 Xrotation Yrotation Zrotation
										JOINT newVegas:LeftHandMiddle3
										{
											OFFSET 4.596550 0.000000 0.000000
											CHANNELS 3 Xrotation Yrotation Zrotation
											End Site
											{
												OFFSET 0.057701 4.578827 0.399218
											}
										}
									}
								}
								JOINT newVegas:LeftHandRing1
								{
									OFFSET 17.732719 0.121887 -4.201567
									CHANNELS 3 Xrotation Yrotation Zrotation
									JOINT newVegas:LeftHandRing2
									{
										OFFSET 2.733170 0.000000 0.000000
										CHANNELS 3 Xrotation Yrotation Zrotation
										JOINT newVegas:LeftHandRing3
										{
											OFFSET 3.178268 0.000000 0.000000
											CHANNELS 3 Xrotation Yrotation Zrotation
											End Site
											{
												OFFSET 0.119102 3.170624 0.185394
											}
										}
									}
								}
								JOINT newVegas:LeftHandPinky1
								{
									OFFSET 15.989624 -0.606689 -7.535461
									CHANNELS 3 Xrotation Yrotation Zrotation
									JOINT newVegas:LeftHandPinky2
									{
										OFFSET 2.538986 0.000000 0.000000
										CHANNELS 3 Xrotation Yrotation Zrotation
										JOINT newVegas:LeftHandPinky3
										{
											OFFSET 2.593102 0.000000 0.000000
											CHANNELS 3 Xrotation Yrotation Zrotation
											End Site
											{
												OFFSET -0.150902 2.584198 0.152708
											}
										}
									}
								}
							}
							JOINT newVegas:Left_Sleeve
							{
								OFFSET 0.267448 -0.649796 0.577675
								CHANNELS 3 Xrotation Yrotation Zrotation
								End Site
								{
									OFFSET 0.000000 15.991241 0.000000
								}
							}
							JOINT newVegas:Left_CapeC
							{
								OFFSET 15.715958 -8.608795 -6.935905
								CHANNELS 3 Xrotation Yrotation Zrotation
								JOINT newVegas:Left_CapeC1
								{
									OFFSET 0.000000 -8.688499 0.000000
									CHANNELS 3 Xrotation Yrotation Zrotation
									End Site
									{
										OFFSET 0.000000 8.688499 0.000000
									}
								}
							}
						}
						JOINT newVegas:Left_CapeB
						{
							OFFSET 26.118385 -8.608795 -7.079235
							CHANNELS 3 Xrotation Yrotation Zrotation
							JOINT newVegas:Left_CapeB1
							{
								OFFSET 0.000000 -8.688499 0.000000
								CHANNELS 3 Xrotation Yrotation Zrotation
								End Site
								{
									OFFSET 0.000000 8.688499 0.000000
								}
							}
						}
						JOINT newVegas:Left_CapeA
						{
							OFFSET 5.115639 -8.608795 -10.395809
							CHANNELS 3 Xrotation Yrotation Zrotation
							JOINT newVegas:Left_CapeA1
							{
								OFFSET 0.000000 -8.688499 0.000000
								CHANNELS 3 Xrotation Yrotation Zrotation
								End Site
								{
									OFFSET 0.000000 8.688499 0.000000
								}
							}
						}
					}
				}
				JOINT newVegas:RightShoulder
				{
					OFFSET -15.263000 10.923401 -0.547700
					CHANNELS 3 Xrotation Yrotation Zrotation
					JOINT newVegas:RightArm
					{
						OFFSET -25.438599 -2.830597 -13.032500
						CHANNELS 3 Xrotation Yrotation Zrotation
						JOINT newVegas:RightForeArm
						{
							OFFSET -29.960503 0.000000 0.000000
							CHANNELS 3 Xrotation Yrotation Zrotation
							JOINT newVegas:RightHand
							{
								OFFSET -27.849251 0.000000 0.000000
								CHANNELS 3 Xrotation Yrotation Zrotation
								JOINT newVegas:RightHandThumb1
								{
									OFFSET -4.487587 -3.305161 6.305391
									CHANNELS 3 Xrotation Yrotation Zrotation
									JOINT newVegas:RightHandThumb2
									{
										OFFSET -5.480453 -3.164139 3.164143
										CHANNELS 3 Xrotation Yrotation Zrotation
										JOINT newVegas:RightHandThumb3
										{
											OFFSET -5.159721 -2.978973 2.978967
											CHANNELS 3 Xrotation Yrotation Zrotation
											End Site
											{
												OFFSET -2.494507 5.926697 1.738678
											}
										}
									}
								}
								JOINT newVegas:RightHandIndex1
								{
									OFFSET -18.578728 -0.527832 5.208049
									CHANNELS 3 Xrotation Yrotation Zrotation
									JOINT newVegas:RightHandIndex2
									{
										OFFSET -3.192009 0.000000 0.000000
										CHANNELS 3 Xrotation Yrotation Zrotation
										JOINT newVegas:RightHandIndex3
										{
											OFFSET -3.835129 0.000000 0.000000
											CHANNELS 3 Xrotation Yrotation Zrotation
											End Site
											{
												OFFSET 0.034599 3.816971 0.371180
											}
										}
									}
								}
								JOINT newVegas:RightHandMiddle1
								{
									OFFSET -18.476105 0.000000 0.000000
									CHANNELS 3 Xrotation Yrotation Zrotation
									JOINT newVegas:RightHandMiddle2
									{
										OFFSET -3.324875 0.000000 0.000000
										CHANNELS 3 Xrotation Yrotation Zrotation
										JOINT newVegas:RightHandMiddle3
										{
											OFFSET -4.596550 0.000000 0.000000
											CHANNELS 3 Xrotation Yrotation Zrotation
											End Site
											{
												OFFSET -0.057701 4.578827 0.399218
											}
										}
									}
								}
								JOINT newVegas:RightHandRing1
								{
									OFFSET -17.732719 0.121887 -4.201567
									CHANNELS 3 Xrotation Yrotation Zrotation
									JOINT newVegas:RightHandRing2
									{
										OFFSET -2.733170 0.000000 0.000000
										CHANNELS 3 Xrotation Yrotation Zrotation
										JOINT newVegas:RightHandRing3
										{
											OFFSET -3.178268 0.000000 0.000000
											CHANNELS 3 Xrotation Yrotation Zrotation
											End Site
											{
												OFFSET -0.119102 3.170624 0.185394
											}
										}
									}
								}
								JOINT newVegas:RightHandPinky1
								{
									OFFSET -15.989624 -0.606689 -7.535461
									CHANNELS 3 Xrotation Yrotation Zrotation
									JOINT newVegas:RightHandPinky2
									{
										OFFSET -2.538986 0.000000 0.000000
										CHANNELS 3 Xrotation Yrotation Zrotation
										JOINT newVegas:RightHandPinky3
										{
											OFFSET -2.593102 0.000000 0.000000
											CHANNELS 3 Xrotation Yrotation Zrotation
											End Site
											{
												OFFSET 0.150902 2.584198 0.152708
											}
										}
									}
								}
							}
							JOINT newVegas:Right_CapeC
							{
								OFFSET -15.715958 -8.608795 -6.935905
								CHANNELS 3 Xrotation Yrotation Zrotation
								JOINT newVegas:Right_CapeC1
								{
									OFFSET 0.000000 -8.688499 0.000000
									CHANNELS 3 Xrotation Yrotation Zrotation
									End Site
									{
										OFFSET 0.000000 8.688499 0.000000
									}
								}
							}
							JOINT newVegas:Right_Sleeve
							{
								OFFSET -0.267448 -0.649994 0.577675
								CHANNELS 3 Xrotation Yrotation Zrotation
								End Site
								{
									OFFSET 0.000000 15.991302 0.000000
								}
							}
						}
						JOINT newVegas:Right_CapeA
						{
							OFFSET -5.115540 -8.608795 -10.395824
							CHANNELS 3 Xrotation Yrotation Zrotation
							JOINT newVegas:Right_CapeA1
							{
								OFFSET 0.000000 -8.688499 0.000000
								CHANNELS 3 Xrotation Yrotation Zrotation
								End Site
								{
									OFFSET 0.000000 8.688499 0.000000
								}
							}
						}
						JOINT newVegas:Right_CapeB
						{
							OFFSET -26.118187 -8.608795 -7.079266
							CHANNELS 3 Xrotation Yrotation Zrotation
							JOINT newVegas:Right_CapeB1
							{
								OFFSET 0.000000 -8.688499 0.000000
								CHANNELS 3 Xrotation Yrotation Zrotation
								End Site
								{
									OFFSET 0.000000 8.688499 0.000000
								}
							}
						}
					}
				}
				JOINT newVegas:Left_Collar
				{
					OFFSET 18.625099 8.655502 8.828100
					CHANNELS 3 Xrotation Yrotation Zrotation
					JOINT newVegas:Left_Collar1
					{
						OFFSET 14.783401 10.540405 -1.259500
						CHANNELS 3 Xrotation Yrotation Zrotation
						End Site
						{
							OFFSET 0.000000 18.199875 0.000000
						}
					}
				}
				JOINT newVegas:Collar_Back
				{
					OFFSET 0.000000 15.630707 -20.132601
					CHANNELS 3 Xrotation Yrotation Zrotation
					End Site
					{
						OFFSET 0.000000 22.523010 0.000000
					}
				}
				JOINT newVegas:Left_Peck
				{
					OFFSET 17.239599 -5.132599 25.482599
					CHANNELS 3 Xrotation Yrotation Zrotation
					End Site
					{
						OFFSET 0.000000 22.523010 0.000000
					}
				}
				JOINT newVegas:Right_Peck
				{
					OFFSET -17.239599 -5.132202 25.482599
					CHANNELS 3 Xrotation Yrotation Zrotation
					End Site
					{
						OFFSET 0.000000 22.523010 0.000000
					}
				}
				JOINT newVegas:Right_Collar
				{
					OFFSET -18.625099 8.655792 8.828100
					CHANNELS 3 Xrotation Yrotation Zrotation
					JOINT newVegas:Right_Collar1
					{
						OFFSET -14.783401 10.539993 -1.259500
						CHANNELS 3 Xrotation Yrotation Zrotation
						End Site
						{
							OFFSET 0.000000 18.199631 0.000000
						}
					}
				}
			}
		}
		JOINT newVegas:Belly
		{
			OFFSET 0.000000 -6.540398 9.014299
			CHANNELS 3 Xrotation Yrotation Zrotation
			End Site
			{
				OFFSET 0.000000 11.566666 0.000000
			}
		}
	}
	JOINT newVegas:ElvisFacialAnim_Joint
	{
		OFFSET 1.000000 -95.330101 -8.825800
		CHANNELS 3 Xrotation Yrotation Zrotation
		End Site
		{
			OFFSET 0.000000 35.315800 0.000000
		}
	}
}
MOTION
Frames: 4
Frame Time: 0.033333
18.028219 93.589508 73.047188 355.648551 16.064035 15.337968 -0.000000 0.000000 -0.000000 -27.262482 -5.626879 21.357004 34.630364 -3.281721 10.308185 17.445731 1.140073 -3.430244 0.000001 0.000001 0.000002 -0.000002 -0.000000 0.000003 -55.405429 3.498527 -72.840587 64.313601 8.746663 10.584309 27.990527 2.524549 14.104202 0.000004 0.000001 0.000000 0.000000 -0.000002 0.000000 8.813167 17.742593 5.288040 -0.364881 4.452676 2.692937 -0.211078 4.363987 2.687720 -1.182739 -0.279047 3.034053 -1.182748 -0.279052 3.034059 0.000000 -0.000003 -0.000002 -1.182737 -0.279063 3.034050 -1.182756 -0.279072 3.034059 -0.000001 -0.000002 -0.000002 0.000000 -0.000003 -0.000001 -25.737526 20.425677 9.680422 -39.118949 33.538773 -2.649431 26.835296 -1.828681 -3.147433 37.268784 19.074842 -24.422554 4.779617 -0.906859 -14.443326 15.720662 12.677691 8.778688 -0.000000 0.000000 -0.000006 -3.632435 -7.841279 -81.215553 0.009026 -4.392187 -67.556049 0.000000 -0.000001 -0.000000 -5.501699 2.427266 -86.541605 -0.078259 -4.910193 -76.778232 0.000001 0.000001 0.000002 -4.502394 3.927220 -90.412225 -1.108423 -0.680728 -62.565516 0.000000 0.000001 0.000002 -8.867172 8.293729 -75.855343 -0.032959 -0.064402 -64.268815 0.000001 -0.000003 0.000002 0.000001 0.000000 -0.000003 0.000001 0.000000 -0.000003 -0.000000 0.000000 -0.000003 -0.000001 -0.000001 -0.000001 -0.000001 -0.000001 -0.000001 -0.000001 -0.000001 -0.000001 -0.000001 -0.000001 -0.000001 -0.472489 18.568062 -8.154878 -85.409241 71.816605 45.569608 5.170889 65.143954 -7.374149 -2.283405 -0.046134 -27.307368 24.918344 -21.323347 30.343047 9.041930 8.262090 -18.001800 0.000001 0.000000 0.000003 -0.031353 -2.966811 61.433836 0.006465 4.395143 66.609207 -0.000002 0.000003 0.000003 -1.212060 -0.129598 68.274503 -0.077303 4.902843 84.501905 -0.000002 -0.000001 0.000001 0.882039 -4.619346 79.192861 -0.717773 1.136495 73.255766 -0.000002 0.000001 -0.000000 -3.984629 0.100343 86.767916 -0.029809 0.060155 54.415144 0.000000 0.000003 0.000004 -0.000001 0.000002 -0.000003 0.000000 0.000002 -0.000002 -0.000001 0.000002 -0.000003 -0.000001 0.000001 0.000001 -0.000001 0.000002 -0.000000 -0.000001 0.000001 0.000001 -0.000001 0.000002 0.000001 0.000000 0.000004 -0.000000 0.000000 0.000004 -0.000000 0.000000 0.000004 -0.000000 0.000000 0.000004 -0.000000 0.000000 0.000004 -0.000000 0.000000 0.000004 -0.000000 0.000000 0.000004 -0.000000 0.000001 0.000000 0.000001 -0.000000 0.000000 -0.000000 
18.421570 86.098602 73.930412 358.902808 5.619981 13.990541 0.000000 -0.000000 -0.000000 -26.446247 -5.052012 15.877724 33.666460 5.256498 12.566448 3.943919 1.433039 4.017131 0.000001 -0.000002 -0.000001 0.000000 0.000000 0.000000 -55.169098 1.681042 -68.147270 66.883664 3.579086 8.688774 16.938785 1.271758 13.594754 -0.000000 -0.000002 0.000000 0.000001 0.000006 -0.000001 11.994364 15.370726 7.001451 0.229876 3.573342 3.233620 0.373555 3.454983 3.209632 -1.035096 -1.498651 3.504363 -1.035082 -1.498647 3.504373 -0.000001 -0.000001 -0.000002 -1.035084 -1.498634 3.504354 -1.035101 -1.498647 3.504372 -0.000002 0.000001 -0.000000 -0.000001 -0.000001 -0.000000 -23.511246 20.159293 6.277836 -37.796023 32.407407 -1.153123 26.619199 -0.334943 -0.668318 30.721341 16.631908 -21.995687 4.772446 -0.849491 -14.474916 15.748794 12.679788 8.841016 0.000001 -0.000002 -0.000001 -3.633351 -7.784437 -80.820939 -0.002638 -4.384448 -67.305463 0.000001 -0.000000 0.000000 -5.510663 2.464683 -86.102191 -0.091244 -4.899950 -76.528376 -0.000001 -0.000000 0.000000 -4.495362 3.938005 -90.206957 -1.111302 -0.677727 -62.442259 0.000001 0.000001 0.000001 -8.821675 8.231599 -76.944506 -0.043366 -0.061593 -64.081081 0.000001 -0.000002 -0.000000 -0.000000 -0.000002 0.000001 -0.000000 -0.000002 0.000001 -0.000001 -0.000001 0.000002 -0.000000 -0.000001 -0.000001 0.000000 -0.000001 -0.000001 -0.000000 -0.000001 -0.000001 -0.000001 -0.000001 -0.000001 -0.129883 17.169477 -2.519568 -83.621733 73.613942 50.276421 -5.759633 64.482074 3.586325 0.519144 4.383420 -29.792640 24.918342 -21.323347 30.343044 9.041933 8.262091 -18.001797 0.000001 -0.000000 -0.000001 -0.031330 -2.966945 61.433815 0.006466 4.395144 66.609200 -0.000001 -0.000000 -0.000002 -1.212058 -0.129603 68.274503 -0.077301 4.902843 84.501905 -0.000000 0.000001 -0.000001 0.882041 -4.619348 79.192861 -0.717777 1.136496 73.255773 -0.000002 0.000001 -0.000001 -3.985134 0.100317 86.767991 -0.029808 0.060157 54.415137 -0.000002 0.000003 -0.000001 0.000000 -0.000000 0.000003 0.000000 -0.000000 0.000005 0.000001 -0.000000 0.000001 0.000002 0.000001 0.000001 0.000002 0.000002 0.000000 0.000002 0.000001 0.000001 0.000002 0.000003 0.000001 0.000003 -0.000002 -0.000002 0.000003 -0.000002 -0.000002 0.000003 -0.000002 -0.000002 0.000003 -0.000002 -0.000002 0.000003 -0.000002 -0.000002 0.000003 -0.000002 -0.000002 0.000003 -0.000002 -0.000002 -0.000001 -0.000000 0.000000 0.000000 -0.000000 -0.000000 
19.875574 77.903351 75.216850 364.875235 -6.348719 13.442598 -0.000000 0.000001 -0.000001 -29.009473 -0.101667 15.299665 29.988038 2.547605 11.251523 -3.049418 1.157880 5.670818 -0.000000 -0.000000 0.000000 -0.000000 0.000000 0.000001 -58.693052 4.428387 -62.495398 76.768840 5.741356 9.508661 -13.648503 -2.684832 16.528585 -0.000000 0.000003 -0.000000 0.000002 -0.000001 -0.000000 13.696303 13.518534 8.892635 0.893336 2.937799 3.374457 1.015048 2.817445 3.338361 -0.666899 -2.529523 3.743837 -0.666882 -2.529521 3.743825 -0.000000 -0.000000 -0.000001 -0.666828 -2.529564 3.743851 -0.666923 -2.529466 3.743821 -0.000001 -0.000000 0.000002 -0.000000 -0.000000 -0.000001 -19.280280 21.391550 1.157500 -36.393898 30.248107 -2.530184 23.652872 -0.821470 -0.109380 16.634205 4.800908 -17.660472 4.762799 -0.853626 -14.449917 15.740453 12.674806 8.848367 0.000001 -0.000004 -0.000003 -3.610778 -7.823113 -81.574083 0.000987 -4.385350 -67.415019 -0.000002 -0.000003 0.000002 -5.498094 2.399719 -87.098886 -0.085207 -4.899517 -76.455901 0.000000 -0.000005 0.000003 -4.489892 3.905302 -90.701374 -1.106133 -0.682673 -61.904566 0.000001 0.000001 -0.000001 -8.878851 8.221663 -76.820353 -0.040615 -0.061802 -64.238264 0.000003 -0.000003 -0.000001 -0.000003 -0.000003 -0.000000 -0.000003 -0.000003 -0.000000 -0.000003 -0.000003 -0.000000 -0.000004 -0.000003 -0.000004 -0.000002 -0.000004 -0.000005 -0.000004 -0.000003 -0.000004 -0.000004 -0.000003 -0.000004 -1.099361 21.814046 -0.926989 -53.188473 60.765905 36.526247 -1.864808 70.267224 4.727291 -2.462860 7.085643 -29.556701 24.918347 -21.323352 30.343047 9.041935 8.262087 -18.001797 0.000001 -0.000003 -0.000003 -0.031316 -2.967117 61.433795 0.006467 4.395144 66.609200 0.000000 -0.000000 0.000005 -1.212059 -0.129602 68.274509 -0.077301 4.902843 84.501905 0.000002 -0.000001 -0.000001 0.882042 -4.619350 79.192861 -0.717777 1.136495 73.255766 -0.000001 0.000002 -0.000002 -3.985580 0.100300 86.768073 -0.029804 0.060159 54.415140 -0.000000 -0.000005 -0.000003 -0.000001 -0.000000 0.000003 -0.000002 -0.000001 0.000003 -0.000001 -0.000000 0.000001 0.000000 -0.000001 -0.000000 0.000000 0.000000 -0.000001 0.000000 -0.000001 -0.000000 0.000000 -0.000000 -0.000001 -0.000000 -0.000000 0.000001 -0.000000 -0.000000 0.000001 -0.000000 -0.000000 0.000001 -0.000000 -0.000000 0.000001 -0.000000 -0.000000 0.000001 -0.000000 -0.000000 0.000001 -0.000000 -0.000000 0.000001 -0.000000 -0.000001 -0.000001 -0.000000 0.000001 -0.000001 
20.867121 68.906036 76.388512 373.124082 -19.778392 13.615865 -0.000000 -0.000002 0.000001 -33.778181 -11.071054 24.853380 48.140939 6.264246 15.688956 -15.030485 8.265769 -28.467665 -0.000000 0.000000 -0.000002 -0.000000 0.000001 -0.000002 -79.070081 15.404414 -55.042316 88.477157 12.119616 10.597039 -11.594950 -1.057726 11.760838 0.000000 0.000001 -0.000000 0.000001 0.000000 -0.000001 14.198392 11.755258 10.037771 1.645979 2.514526 2.936806 1.740097 2.438401 2.883296 -0.013000 -3.095637 3.714542 -0.012982 -3.095647 3.714549 0.000001 0.000001 -0.000000 -0.012976 -3.095632 3.714524 -0.013002 -3.095670 3.714554 0.000000 0.000001 -0.000003 0.000001 0.000001 0.000001 -14.136517 23.118421 -5.022410 -34.272895 26.894795 -5.317892 18.467307 -5.716154 -1.526230 0.548727 -9.440413 -19.789737 4.761692 -0.873563 -14.433503 15.729552 12.672774 8.830486 0.000001 -0.000000 0.000002 -3.575623 -7.870111 -82.495831 0.007576 -4.390098 -67.711319 0.000000 0.000001 0.000000 -5.446037 2.305308 -88.266159 -0.077710 -4.900078 -76.571311 0.000001 0.000001 -0.000001 -4.490510 3.871619 -90.581095 -1.102541 -0.686650 -61.552838 0.000002 0.000001 -0.000002 -8.997799 8.340766 -71.622682 -0.033707 -0.064134 -64.466686 0.000002 -0.000003 -0.000000 -0.000000 -0.000002 -0.000001 -0.000000 -0.000002 -0.000001 -0.000001 -0.000002 -0.000001 -0.000001 -0.000001 -0.000000 -0.000001 0.000000 0.000000 -0.000001 -0.000001 -0.000000 -0.000002 0.000000 -0.000000 -2.361363 25.983033 2.204426 -43.131084 49.073342 42.910349 -4.565200 62.494503 11.609213 -3.316868 8.661641 -26.814447 24.918350 -21.323350 30.343044 9.041933 8.262093 -18.001799 0.000003 -0.000003 -0.000003 -0.031290 -2.967336 61.433774 0.006470 4.395145 66.609200 0.000001 -0.000000 0.000000 -1.212060 -0.129604 68.274509 -0.077302 4.902841 84.501905 0.000001 0.000001 0.000001 0.882040 -4.619347 79.192861 -0.717777 1.136496 73.255766 0.000001 0.000001 -0.000001 -3.986005 0.100266 86.768148 -0.029802 0.060158 54.415144 -0.000001 0.000002 0.000000 0.000002 0.000000 0.000004 0.000002 -0.000000 0.000007 0.000002 -0.000000 0.000005 0.000000 0.000003 -0.000002 0.000000 0.000003 -0.000003 0.000000 0.000003 -0.000002 0.000000 0.000004 -0.000002 0.000002 0.000001 0.000002 0.000002 0.000001 0.000002 0.000002 0.000001 0.000002 0.000002 0.000001 0.000002 0.000002 0.000001 0.000002 0.000002 0.000001 0.000002 0.000002 0.000001 0.000002 -0.000001 0.000001 0.000003 -0.000000 -0.000002 0.000001 
